<svg width="22" height="16" viewBox="0 0 22 16" fill="none" xmlns="http://www.w3.org/2000/svg">
<path fill-rule="evenodd" clip-rule="evenodd" d="M21.25 8C21.25 8.19891 21.171 8.38968 21.0303 8.53033L14.0303 15.5303C13.7374 15.8232 13.2626 15.8232 12.9697 15.5303C12.6768 15.2374 12.6768 14.7626 12.9697 14.4697L18.6893 8.75L1.5 8.75C1.08579 8.75 0.75 8.41421 0.75 8C0.75 7.58579 1.08579 7.25 1.5 7.25L18.6893 7.25L12.9697 1.53033C12.6768 1.23744 12.6768 0.762564 12.9697 0.46967C13.2626 0.176777 13.7374 0.176777 14.0303 0.46967L21.0303 7.46967C21.171 7.61032 21.25 7.80109 21.25 8Z" fill="#1E1E1E"/>
</svg>
