<svg width="24" height="24" viewBox="0 0 24 24" fill="none" xmlns="http://www.w3.org/2000/svg">
<path fill-rule="evenodd" clip-rule="evenodd" d="M22.25 12C22.25 12.1989 22.171 12.3897 22.0303 12.5303L15.0303 19.5303C14.7374 19.8232 14.2626 19.8232 13.9697 19.5303C13.6768 19.2374 13.6768 18.7626 13.9697 18.4697L19.6893 12.75L2.5 12.75C2.08579 12.75 1.75 12.4142 1.75 12C1.75 11.5858 2.08579 11.25 2.5 11.25L19.6893 11.25L13.9697 5.53033C13.6768 5.23744 13.6768 4.76256 13.9697 4.46967C14.2626 4.17678 14.7374 4.17678 15.0303 4.46967L22.0303 11.4697C22.171 11.6103 22.25 11.8011 22.25 12Z" fill="#1E1E1E"/>
</svg>
