<svg width="160" height="38" viewBox="0 0 160 38" fill="none" xmlns="http://www.w3.org/2000/svg">
<path d="M30.6906 27.5464V11.586H32.3206L38.3879 25.2825L44.4777 11.586H46.1077V27.5464H44.3872V15.5251L39.0218 27.5464H37.7766L32.3886 15.5251V27.5464H30.6906ZM48.2901 27.5464L55.3308 11.586H56.9608L64.1147 27.5464H62.1677L60.3792 23.4714H51.9576L50.2144 27.5464H48.2901ZM56.1231 13.7367L52.6367 21.9319H59.7454L56.1684 13.7367H56.1231ZM65.5715 27.886L64.6886 26.4144C65.3225 26.0824 65.8885 25.69 66.3865 25.2372C66.8846 24.7693 67.2996 24.1656 67.6317 23.4261C67.9788 22.6866 68.2354 21.7508 68.4014 20.6189C68.5825 19.4718 68.673 18.0607 68.673 16.3854V11.586H79.5623V27.5464H77.706V13.1707H70.4162V16.8608C70.4162 19.0643 70.2276 20.8906 69.8503 22.3394C69.488 23.7732 68.9447 24.9278 68.2203 25.8032C67.4958 26.6786 66.6129 27.3728 65.5715 27.886ZM83.314 27.5464V11.586H85.1704V18.6267H90.1736C91.8942 18.6267 93.2299 18.9964 94.1807 19.736C95.1315 20.4755 95.607 21.5848 95.607 23.0639C95.607 24.543 95.1315 25.6598 94.1807 26.4144C93.2299 27.1691 91.8942 27.5464 90.1736 27.5464H83.314ZM85.1704 26.0296H90.0151C92.5054 26.0296 93.7506 25.041 93.7506 23.0639C93.7506 21.132 92.5054 20.1661 90.0151 20.1661H85.1704V26.0296ZM98.4087 27.5464V11.586H108.664V13.1707H100.265V27.5464H98.4087ZM107.143 27.5464L114.184 11.586H115.814L122.968 27.5464H121.021L119.232 23.4714H110.811L109.068 27.5464H107.143ZM114.976 13.7367L111.49 21.9319H118.599L115.022 13.7367H114.976ZM125.172 27.5464V11.586H126.802L132.869 25.2825L138.959 11.586H140.589V27.5464H138.868V15.5251L133.503 27.5464H132.258L126.87 15.5251V27.5464H125.172ZM142.771 27.5464L149.812 11.586H151.442L158.596 27.5464H156.649L154.86 23.4714H146.439L144.695 27.5464H142.771ZM150.604 13.7367L147.118 21.9319H154.226L150.65 13.7367H150.604Z" fill="#283C4B"/>
<path d="M0 33L12.0363 6.39931H16.1113L28.2986 33H23.3558L20.6769 26.8498H7.58403L4.90509 33H0ZM14.0361 11.6062L9.20648 23.0389H19.1299L14.187 11.6062H14.0361Z" fill="#4A7EA0"/>
</svg>
