<svg width="29" height="23" viewBox="0 0 29 23" fill="none" xmlns="http://www.w3.org/2000/svg">
<path d="M15.354 17.7975L15.0178 17.4273L15.0178 17.4274L15.0175 17.4277L15.0163 17.4287L15.0116 17.433L14.9931 17.4498L14.9218 17.5145L14.6565 17.7554L13.7561 18.5728L11.4406 20.6751L11.4406 20.6751C11.3189 20.7856 11.136 20.8337 10.9621 20.7905C10.7979 20.7489 10.6711 20.6294 10.6145 20.4689L10.6144 20.4688C10.1777 19.2315 9.54002 17.3954 9.01126 15.8676C8.74695 15.1039 8.50995 14.4176 8.33904 13.9222L8.13709 13.3365L8.08237 13.1777L8.06816 13.1365L8.06455 13.126L8.06364 13.1234L8.06341 13.1227L8.06335 13.1225L7.59058 13.2853M15.354 17.7975L15.6421 17.3889L15.6423 17.389L15.6428 17.3894L15.6451 17.3909L15.6539 17.3972L15.6889 17.4218L15.8238 17.5169L16.3231 17.8682C16.7464 18.166 17.3352 18.5797 17.9971 19.0434C19.3212 19.9711 20.9361 21.0979 22.1041 21.8979C22.3446 22.0614 22.6554 22.1019 22.9297 22.0023C23.2051 21.9011 23.3937 21.6809 23.4496 21.4301C23.9512 19.163 24.8107 15.1595 25.6595 11.2044L25.7067 10.9845C26.5389 7.10654 27.3543 3.30699 27.8032 1.27939L27.8034 1.27873C27.83 1.15937 27.7883 1.02539 27.6745 0.932389C27.5581 0.837184 27.39 0.806406 27.2382 0.860585L27.2378 0.860755C24.9739 1.66657 20.5082 3.27195 15.77 4.97533L14.7777 5.33203C9.68014 7.16454 4.42461 9.05319 1.37445 10.1385C1.18006 10.2077 1.07533 10.3766 1.08025 10.5384C1.08634 10.7019 1.20287 10.8655 1.40418 10.9237C2.77433 11.3178 4.35757 11.7887 5.59746 12.1608C6.21763 12.3469 6.75226 12.5084 7.13187 12.6234L7.5764 12.7583L7.69521 12.7945L7.72591 12.8038L7.73373 12.8062L7.73571 12.8068L7.73621 12.8069L7.73634 12.807L7.59058 13.2853M15.354 17.7975L15.6421 17.3888L15.3146 17.1579L15.0179 17.4273L15.354 17.7975ZM7.59058 13.2853L8.06333 13.1225L7.98031 12.8814L7.73638 12.807L7.59058 13.2853ZM8.83906 12.2436L8.50654 12.4479L8.62387 12.82L10.5639 18.9734L11.5377 18.878L11.9471 15.1759L12.1297 15.0175L13.0372 14.2304L16.0811 11.5903L23.5674 5.09744L23.5686 5.09644C23.8912 4.8149 23.9437 4.32793 23.6666 3.98627C23.3995 3.65551 22.9301 3.59129 22.5832 3.80282L22.5819 3.80363L13.8534 9.16406L10.29 11.3525L9.22645 12.0057L8.93899 12.1823L8.86443 12.2281L8.84545 12.2397L8.84066 12.2427L8.83946 12.2434L8.83916 12.2436C8.83909 12.2436 8.83906 12.2436 9.10073 12.6697L8.83906 12.2436Z" fill="#4A7EA0" stroke="#4A7EA0"/>
</svg>
