<svg width="29" height="28" viewBox="0 0 29 28" fill="none" xmlns="http://www.w3.org/2000/svg">
<path d="M21.6324 16.4022C21.8095 16.6844 21.7393 17.4619 21.473 18.1735C21.1349 19.0769 19.6486 19.8175 18.9723 19.8752L18.8731 19.8843L11.9784 12.7521L11.8697 12.7213M21.6324 16.4022C21.511 16.2104 21.3019 16.1138 21.0372 15.9916L21.0371 15.9916C21.0318 15.9891 21.0082 15.978 20.9693 15.9597C20.6072 15.7891 18.9266 14.9973 18.6022 14.885M21.6324 16.4022L20.5325 17.0928C20.5318 17.0917 20.531 17.0905 20.5303 17.0893L20.4928 17.1707C20.5266 17.1863 20.5546 17.1993 20.5811 17.2117C20.6072 17.224 20.6282 17.2341 20.646 17.2429C20.6637 17.2517 20.6761 17.2583 20.6847 17.263C20.6875 17.2645 20.6896 17.2657 20.6913 17.2667C20.695 17.2688 20.6963 17.2697 20.6959 17.2694C20.6948 17.2687 20.6726 17.2547 20.6411 17.2255C20.6079 17.1946 20.5697 17.1516 20.5348 17.0965L21.6324 16.4022ZM18.6022 14.885C18.4555 14.8343 18.2984 14.7849 18.1313 14.7849C17.8583 14.7849 17.629 14.9157 17.4504 15.1727C17.2484 15.4613 16.6371 16.1485 16.4482 16.3538C16.4235 16.3809 16.3899 16.4133 16.3697 16.4133C16.3516 16.4133 16.0387 16.2894 15.944 16.2498C13.7754 15.3439 12.1293 13.1655 11.9035 12.7981C11.8744 12.7504 11.8705 12.7262 11.8698 12.722C11.8698 12.7216 11.8697 12.7213 11.8697 12.7213M18.6022 14.885L18.2985 15.7623L18.2975 15.7653L18.1885 16.0801L18.1895 16.08L18.298 15.7657L18.2991 15.7626L18.6022 14.885ZM11.8697 12.7213C11.8776 12.6934 11.9505 12.6231 11.9882 12.5868C12.0982 12.4821 12.2174 12.3442 12.3327 12.2107L12.333 12.2103M11.8697 12.7213V12.4639V12.4623V11.8103M12.333 12.2103C12.3877 12.1471 12.4424 12.0837 12.4961 12.0239M12.333 12.2103L11.8697 11.81M12.333 12.2103L11.8697 11.8103M12.4961 12.0239C12.5915 11.9173 12.6567 11.8242 12.7112 11.7327C12.5416 11.5881 12.2628 11.4226 11.8697 11.4226V11.4603M12.4961 12.0239L11.8697 11.464M12.4961 12.0239L11.8697 11.4603M11.8697 11.4603L11.5307 11.1553C11.5301 11.1559 11.5295 11.1566 11.5289 11.1573C11.5286 11.1577 11.5282 11.1581 11.5279 11.1585L11.8697 11.464M11.8697 11.4603V11.464M11.8697 11.464V11.81M11.8697 11.81L11.3503 11.3613C11.3502 11.3614 11.3502 11.3614 11.3501 11.3615C11.3501 11.3615 11.3501 11.3616 11.3501 11.3616L11.8697 11.8103M11.8697 11.81V11.8103M9.10583 7.98653C8.62099 8.28047 7.80078 9.21744 7.80078 10.8652C7.80078 12.3483 8.77945 13.7485 9.19964 14.2811L9.77615 9.09895C9.77612 9.09889 9.77711 9.09829 9.77904 9.09712L9.10583 7.98653ZM9.10583 7.98653C9.56302 7.70939 10.5971 7.57848 10.7869 7.57077M9.10583 7.98653L9.77911 9.09708L9.77911 9.09708C9.77902 9.09714 9.77804 9.09773 9.77623 9.09894M10.7869 7.57077L11.6186 11.0269M10.7869 7.57077C10.8996 7.56621 10.9115 7.56494 10.9234 7.56459C10.928 7.56445 10.9325 7.56445 10.9429 7.56445C11.3436 7.56445 11.632 7.79831 11.8502 8.30056C11.872 8.35052 11.9378 8.50266 12.0258 8.70631C12.3044 9.35099 12.8061 10.5119 12.8424 10.5818M10.7869 7.57077L12.8424 10.5818M9.77623 9.09894C9.77833 9.09834 9.82099 9.07693 9.92241 9.0452C10.0306 9.01135 10.1622 8.97911 10.303 8.95077C10.4418 8.92282 10.5754 8.90149 10.6825 8.887C10.6846 8.88672 10.6866 8.88644 10.6887 8.88617C10.7202 8.95892 10.7702 9.07475 10.8315 9.2166C10.9266 9.43661 11.0487 9.71923 11.1707 10.0008L11.1874 10.0395C11.3424 10.3973 11.5184 10.8039 11.6186 11.0269M9.77623 9.09894C9.7744 9.10016 9.77171 9.10199 9.7682 9.10451C9.76094 9.10971 9.75097 9.11727 9.73863 9.12748C9.71374 9.14809 9.68181 9.17735 9.64533 9.21631C9.57217 9.29444 9.487 9.40482 9.40607 9.55013C9.24733 9.83514 9.09948 10.264 9.09948 10.8652C9.09948 11.3337 9.25853 11.851 9.50717 12.3547C9.75119 12.849 10.0436 13.2541 10.2192 13.4766L10.2246 13.4834L10.2245 13.4834C10.2384 13.5012 10.25 13.5169 10.257 13.5265L10.2781 13.5557L10.2819 13.5611M9.77623 9.09894L20.2567 17.7183L20.2567 17.7182M11.6186 11.0269C11.6523 11.102 11.6774 11.1563 11.6902 11.1809L11.6901 11.1809L11.695 11.1901C11.7 11.1995 11.7019 11.2037 11.702 11.2037C11.702 11.2037 11.6996 11.1985 11.6962 11.1895C11.6951 11.1866 11.6939 11.1833 11.6927 11.1796C11.6877 11.165 11.6818 11.1447 11.6777 11.1211C11.6712 11.084 11.6677 11.0347 11.6752 10.9779C11.6771 10.9636 11.6795 10.9499 11.6824 10.9367C11.6827 10.9352 11.6831 10.9337 11.6834 10.9322C11.6918 10.8957 11.7037 10.8639 11.7165 10.8383C11.7169 10.8374 11.7174 10.8365 11.7179 10.8355M11.6186 11.0269C11.6306 11.0044 11.6463 10.9743 11.6691 10.9299L11.6711 10.9258L11.6711 10.9259L11.7164 10.8383L11.7179 10.8355M11.7179 10.8355C11.7183 10.8346 11.7188 10.8337 11.7193 10.8329L11.7179 10.8355ZM10.2819 13.5611L10.2571 13.6488L9.25713 14.3609L10.2567 13.6503L10.1519 14.02H10.6187M10.2819 13.5611L10.315 13.6076C10.4149 13.7479 10.5162 13.8854 10.6187 14.02M10.2819 13.5611L11.1861 14.02M10.6187 14.02C12.0579 15.9096 13.7493 17.2413 15.3716 17.8645M10.6187 14.02H11.1861M15.3716 17.8645L14.9059 19.0768L15.3716 17.8645ZM15.3716 17.8645C17.2281 18.5776 17.9939 18.6171 18.3178 18.6171H18.3179C18.4727 18.6171 18.5967 18.6059 18.7507 18.5914L18.7546 18.591L18.8538 18.5819L18.8607 18.5813M18.8607 18.5813C18.8607 18.5813 18.8611 18.5813 18.862 18.5812L18.862 18.5812L18.8607 18.5813ZM18.8607 18.5813C18.8607 18.5812 18.8843 18.5784 18.9336 18.5656C18.9867 18.5518 19.0555 18.5301 19.137 18.499C19.3017 18.436 19.4896 18.3452 19.6711 18.2341C19.8543 18.1218 20.007 18.0035 20.1166 17.8939C20.2238 17.7867 20.2538 17.7241 20.2565 17.7186C20.2567 17.7183 20.2567 17.7181 20.2567 17.7182M20.2567 17.7182C20.3332 17.5138 20.3844 17.3067 20.4107 17.1321M20.2567 17.7182L20.4927 17.1707C20.4851 17.1671 20.4558 17.1534 20.4107 17.1321M20.4107 17.1321C20.4171 17.0894 20.4221 17.0486 20.4255 17.0103C20.4343 16.9128 20.4309 16.8589 20.4294 16.8458C20.4288 16.8405 20.4303 16.8588 20.4408 16.8946C20.4504 16.9276 20.4748 17 20.5303 17.0892L15.4434 17.4482M20.4107 17.1321C20.4071 17.1304 20.4034 17.1287 20.3997 17.1269C20.3344 17.0962 20.2404 17.0519 20.1323 17.0012C19.9308 16.9065 19.664 16.7817 19.3883 16.654C19.1118 16.526 18.8299 16.3967 18.5968 16.2926C18.4903 16.245 18.3973 16.2041 18.3214 16.1717C18.0111 16.5603 17.5497 17.0746 17.4059 17.231C17.3754 17.2644 17.313 17.3305 17.23 17.3985C17.188 17.433 17.1109 17.4926 17.0061 17.5494C16.9239 17.594 16.6916 17.712 16.3697 17.712C16.2326 17.712 16.1248 17.6891 16.1031 17.6845L16.101 17.6841C16.0626 17.676 16.032 17.6678 16.0161 17.6634C15.983 17.6542 15.9557 17.6454 15.9421 17.6408C15.912 17.6309 15.8828 17.6203 15.8617 17.6126C15.8166 17.5961 15.7637 17.5758 15.7147 17.5567C15.6174 17.5189 15.5046 17.4737 15.4434 17.4482M15.4434 17.4482L15.9374 16.2656L15.4434 17.4482C15.4434 17.4482 15.4434 17.4482 15.4434 17.4482ZM11.1861 14.02H11.8697C11.5552 14.02 11.3074 13.9081 11.1459 13.7997C10.9926 13.6968 10.8944 13.5833 10.8411 13.5142C10.8298 13.4995 10.8191 13.485 10.809 13.4707C10.8082 13.4696 10.8075 13.4685 10.8068 13.4675C10.7268 13.3535 10.685 13.2547 10.6701 13.219C10.6316 13.126 10.6127 13.0485 10.6084 13.0307L10.6081 13.0293C10.6011 13.0007 10.5966 12.978 10.5947 12.9682C10.5925 12.9567 10.5908 12.9475 10.5901 12.943C10.5896 12.9405 10.5849 12.9123 10.5887 12.9348C10.5913 12.9508 10.5955 12.974 10.6015 13.0018C10.6134 13.0567 10.629 13.1122 10.6486 13.1682C10.6872 13.2788 10.7377 13.3809 10.795 13.4747L10.795 13.4747L10.797 13.478C10.8698 13.5964 11.0024 13.7857 11.1861 14.02ZM12.8424 10.5818C12.9007 10.6916 13.0809 11.0319 12.8699 11.4351L12.8246 11.5226L12.8424 10.5818Z" fill="#4A7EA0" stroke="#4A7EA0" stroke-width="2.5974"/>
<path d="M26.7147 13.6683C26.7147 7.21948 21.2359 2.07812 14.6289 2.07812C8.02127 2.07812 2.54174 7.21934 2.54174 13.6683C2.54174 15.9649 3.23879 18.1669 4.5519 20.0621L3.55646 22.8862L2.70153 25.3117L5.16094 24.5599L8.36926 23.5792C10.2586 24.6799 12.4143 25.2572 14.629 25.2572C21.2359 25.2572 26.7148 20.1167 26.7147 13.6683ZM26.7147 13.6683H25.416L26.7147 13.6683C26.7147 13.6683 26.7147 13.6683 26.7147 13.6683ZM4.10082 20.674L4.30689 20.0894L3.98206 19.5616C2.88485 17.7785 2.3073 15.7446 2.3073 13.6683C2.3073 7.27416 7.77815 1.96765 14.629 1.96765C21.479 1.96765 26.9493 7.27404 26.9493 13.6683C26.9493 20.0617 21.4791 25.3676 14.6291 25.3676C12.5797 25.3676 10.5581 24.8812 8.77576 23.9654L8.30687 23.7245L7.80272 23.8785L2.3878 25.5332L4.10082 20.674ZM7.99942 23.3549C8.00051 23.3556 8.00161 23.3563 8.00271 23.357C8.00139 23.3561 8.00008 23.3553 7.99877 23.3545L7.99942 23.3549ZM4.86099 20.4876C4.86023 20.4866 4.85947 20.4856 4.85871 20.4846C4.85946 20.4855 4.8602 20.4865 4.86094 20.4875L4.86099 20.4876Z" fill="#4A7EA0" stroke="#4A7EA0" stroke-width="2.5974"/>
</svg>
