<svg width="256" height="113" viewBox="0 0 256 113" fill="none" xmlns="http://www.w3.org/2000/svg">
<g opacity="0.5" clip-path="url(#clip0_2177_160)">
<path d="M64.1552 64.8024H76.7184V68.8137H70.7398V96.9998H64.1484V64.8024" fill="#1E1E1E"/>
<path d="M84.1726 84.9125L85.3029 68.8137H85.6842L86.8146 84.9125H84.1794H84.1726ZM76.8799 96.9998H83.3282L83.9411 88.4515H87.0461L87.6589 96.9998H94.1073L90.6686 64.8024H80.3117L76.873 96.9998" fill="#1E1E1E"/>
<path d="M103.541 85.7308V91.7977C103.541 92.6159 104.187 92.8554 104.569 92.8554C105.188 92.8554 105.624 92.3565 105.624 91.7977V84.3005C105.624 83.296 105.434 82.1917 102.975 82.1917H100.299V78.6526H103.084C104.95 78.6526 105.624 78.2269 105.624 76.2511V69.8649C105.624 69.3127 105.195 68.8071 104.569 68.8071C104.187 68.8071 103.541 69.02 103.541 69.8649V75.1136H96.9492V70.5501C96.9492 68.3082 97.2216 64.7958 101.838 64.7958H107.293C111.909 64.7958 112.209 68.3082 112.209 70.5501V75.699C112.209 79.2114 109.696 80.1627 107.728 80.0829V80.4022C112.161 80.2958 112.209 83.622 112.209 84.7529V91.2456C112.209 93.514 111.909 96.9999 107.293 96.9999H101.838C97.2216 96.9999 96.9492 93.514 96.9492 91.2456V85.7308H103.541Z" fill="#1E1E1E"/>
<path d="M116.531 64.8024H131.791V96.9998H125.199V68.8137H123.123V96.9998H116.531V64.8024Z" fill="#1E1E1E"/>
<path d="M142.707 82.5111V68.8139H143.571C144.273 68.8139 144.783 69.3926 144.783 70.4237V80.9012C144.783 81.9323 144.273 82.5111 143.571 82.5111H142.707ZM136.115 96.9999H142.707V86.0501H146.486C151.075 86.0501 151.375 82.5643 151.375 80.2958V70.5568C151.375 68.3149 151.075 64.8025 146.486 64.8025H136.115V96.9999Z" fill="#1E1E1E"/>
<path d="M164.373 91.7976C164.373 92.3498 163.944 92.8554 163.318 92.8554C162.937 92.8554 162.29 92.6159 162.29 91.7976V69.8715C162.29 69.0266 162.937 68.8137 163.318 68.8137C163.937 68.8137 164.373 69.3127 164.373 69.8715V91.7976ZM155.705 91.2455C155.705 93.514 156.005 96.9998 160.594 96.9998H166.076C170.665 96.9998 170.965 93.514 170.965 91.2455V70.5567C170.965 68.3148 170.665 64.8024 166.076 64.8024H160.594C156.005 64.8024 155.705 68.3148 155.705 70.5567V91.2455Z" fill="#1E1E1E"/>
<path d="M192.408 64.8024H200.995V96.9998H194.404V76.8099H194.158L190.754 96.9998H185.483L182.106 76.8099H181.861V96.9998H175.27V64.8024H183.836L188.132 87.447L192.402 64.8024" fill="#1E1E1E"/>
<path d="M55.6163 20.7839C53.6008 12.1558 48.5415 5.13755 47.8469 4C46.7438 5.60987 42.7127 11.8099 40.6631 18.6751C38.4229 26.3519 38.096 33.164 38.8655 39.8363C39.6349 46.5418 42.5289 53.427 42.5289 53.427C44.0678 57.0193 46.3761 60.8976 47.8742 62.7936C50.0736 59.9929 55.1328 51.6575 56.7126 40.7876C57.591 34.7206 57.625 29.412 55.6163 20.7839ZM47.8469 60.6315C46.8528 58.8088 45.3139 55.3562 45.1709 49.9678C45.13 44.7989 47.2613 40.3352 47.881 39.4105C48.4325 40.3352 50.2642 44.2135 50.4821 49.5155C50.6319 54.691 48.8683 58.7755 47.8469 60.6249V60.6315ZM55.0307 35.4324C54.9558 38.732 54.554 42.2178 54.0365 44.3C54.2204 40.7144 53.7778 35.6719 52.9403 31.7137C52.0959 27.7822 49.7127 21.183 47.8061 18.1496C46.0493 21.05 43.8839 26.7511 42.7468 31.6871C41.6096 36.6232 41.5756 42.6103 41.5756 44.4064C41.276 42.903 40.5201 37.4946 40.7312 32.0796C40.9083 27.6225 41.9773 22.9991 42.5629 20.8903C44.7964 13.8455 47.3294 9.33519 47.8061 8.61674C48.2827 9.32854 51.4695 14.8966 53.1241 20.7307C54.7719 26.5648 55.0988 32.1594 55.0307 35.4324Z" fill="#1E1E1E"/>
<path d="M51.2641 64.8027H35.9228V74.8544C35.9228 74.8544 35.9501 74.8278 35.9637 74.8278C39.5794 71.2887 45.4422 71.2887 49.0579 74.8278C52.6736 78.3402 52.6736 84.0612 49.0579 87.6003C49.0443 87.6269 49.0239 87.6269 49.0103 87.6535C49.0103 87.6535 48.9694 87.6801 48.9558 87.7067C45.3469 91.1926 40.6417 92.9355 35.9296 92.9355C31.2176 92.9355 26.4648 91.1926 22.8558 87.6602C16.4892 81.4602 15.7401 71.8275 20.5883 64.8093C21.242 63.858 21.9979 62.9599 22.8558 62.1151C26.4648 58.576 31.1972 56.8398 35.9296 56.8398V32.6584C17.7421 32.6584 3 47.0408 3 64.8027C3 82.5645 17.7421 96.9735 35.9228 96.9735C45.4013 96.9735 53.947 93.0419 59.9528 86.7887V64.8093H51.2641" fill="#1E1E1E"/>
</g>
<defs>
<clipPath id="clip0_2177_160">
<rect width="198" height="93" fill="white" transform="translate(3 4)"/>
</clipPath>
</defs>
</svg>
