<svg width="213" height="102" viewBox="0 0 213 102" fill="none" xmlns="http://www.w3.org/2000/svg">
<g opacity="0.5" clip-path="url(#clip0_336_1437)">
<path d="M65.7886 66.6865H79.3034V71.0861H72.872V102H65.7812V66.6865" fill="#1E1E1E"/>
<path d="M87.3213 88.7427L88.5373 71.0861H88.9475L90.1634 88.7427H87.3286H87.3213ZM79.4761 102H86.413L87.0722 92.6243H90.4125L91.0718 102H98.0086L94.3095 66.6865H83.1679L79.4688 102" fill="#1E1E1E"/>
<path d="M108.157 89.6401V96.2942C108.157 97.1916 108.853 97.4543 109.263 97.4543C109.93 97.4543 110.399 96.9071 110.399 96.2942V88.0715C110.399 86.9698 110.194 85.7586 107.549 85.7586H104.67V81.8771H107.666C109.673 81.8771 110.399 81.4101 110.399 79.2431V72.2389C110.399 71.6333 109.937 71.0788 109.263 71.0788C108.853 71.0788 108.157 71.3122 108.157 72.2389V77.9955H101.066V72.9904C101.066 70.5316 101.359 66.6792 106.326 66.6792H112.193C117.16 66.6792 117.482 70.5316 117.482 72.9904V78.6376C117.482 82.4899 114.779 83.5333 112.662 83.4457V83.7959C117.431 83.6792 117.482 87.3273 117.482 88.5676V95.6886C117.482 98.1766 117.16 102 112.193 102H106.326C101.359 102 101.066 98.1766 101.066 95.6886V89.6401H108.157Z" fill="#1E1E1E"/>
<path d="M122.133 66.6865H138.548V102H131.458V71.0861H129.224V102H122.133V66.6865Z" fill="#1E1E1E"/>
<path d="M150.29 86.109V71.0862H151.22C151.975 71.0862 152.524 71.721 152.524 72.8519V84.3433C152.524 85.4742 151.975 86.109 151.22 86.109H150.29ZM143.199 102H150.29V89.9905H154.355C159.293 89.9905 159.615 86.1673 159.615 83.6793V72.9978C159.615 70.539 159.293 66.6866 154.355 66.6866H143.199V102Z" fill="#1E1E1E"/>
<path d="M173.598 96.2942C173.598 96.8998 173.137 97.4543 172.463 97.4543C172.053 97.4543 171.357 97.1917 171.357 96.2942V72.2462C171.357 71.3196 172.053 71.0861 172.463 71.0861C173.13 71.0861 173.598 71.6333 173.598 72.2462V96.2942ZM164.273 95.6887C164.273 98.1766 164.596 102 169.533 102H175.43C180.367 102 180.689 98.1766 180.689 95.6887V72.9977C180.689 70.5389 180.367 66.6865 175.43 66.6865H169.533C164.596 66.6865 164.273 70.5389 164.273 72.9977V95.6887Z" fill="#1E1E1E"/>
<path d="M203.758 66.6865H212.995V102H205.904V79.856H205.64L201.978 102H196.308L192.675 79.856H192.411V102H185.32V66.6865H194.535L199.157 91.5226L203.75 66.6865" fill="#1E1E1E"/>
<path d="M56.6032 18.4082C54.4349 8.94506 48.9924 1.24764 48.2452 0C47.0585 1.76567 42.7221 8.56567 40.5172 16.0953C38.1072 24.515 37.7556 31.9863 38.5834 39.3043C39.4111 46.6588 42.5243 54.2103 42.5243 54.2103C44.1798 58.1502 46.663 62.4039 48.2745 64.4833C50.6405 61.4116 56.0831 52.2695 57.7825 40.3476C58.7275 33.6936 58.7641 27.8712 56.6032 18.4082ZM48.2452 62.112C47.1757 60.1129 45.5203 56.3262 45.3664 50.4163C45.3225 44.7472 47.6153 39.8515 48.2818 38.8373C48.8752 39.8515 50.8456 44.1051 51.08 49.9202C51.2412 55.5966 49.344 60.0764 48.2452 62.1047V62.112ZM55.9732 34.4742C55.8926 38.0931 55.4605 41.9163 54.9037 44.2C55.1015 40.2674 54.6254 34.7369 53.7244 30.3957C52.8161 26.0837 50.2523 18.8459 48.2013 15.5189C46.3114 18.7 43.982 24.9528 42.7587 30.3665C41.5354 35.7803 41.4988 42.3468 41.4988 44.3167C41.1765 42.6678 40.3634 36.736 40.5905 30.797C40.7809 25.9086 41.931 20.8378 42.5609 18.5249C44.9636 10.7983 47.6885 5.8515 48.2013 5.06352C48.714 5.84421 52.1422 11.9511 53.9222 18.3498C55.6949 24.7485 56.0465 30.8845 55.9732 34.4742Z" fill="#1E1E1E"/>
<path d="M51.9205 66.6867H35.417V77.7112C35.417 77.7112 35.4463 77.682 35.4609 77.682C39.3506 73.8004 45.6575 73.8004 49.5471 77.682C53.4368 81.5343 53.4368 87.809 49.5471 91.6906C49.5325 91.7197 49.5105 91.7197 49.4959 91.7489C49.4959 91.7489 49.4519 91.7781 49.4373 91.8073C45.555 95.6305 40.4933 97.5421 35.4243 97.5421C30.3553 97.5421 25.2424 95.6305 21.3601 91.7562C14.5111 84.9562 13.7053 74.3914 18.9208 66.694C19.624 65.6506 20.4371 64.6657 21.3601 63.7391C25.2424 59.8575 30.3333 57.9532 35.4243 57.9532V31.4318C15.8589 31.4318 0 47.206 0 66.6867C0 86.1674 15.8589 101.971 35.417 101.971C45.6136 101.971 54.8066 97.6588 61.2674 90.8004V66.694H51.9205" fill="#1E1E1E"/>
</g>
<defs>
<clipPath id="clip0_336_1437">
<rect width="213" height="102" fill="white"/>
</clipPath>
</defs>
</svg>
