<svg width="198" height="72" viewBox="0 0 198 72" fill="none" xmlns="http://www.w3.org/2000/svg">
<g opacity="0.5" clip-path="url(#clip0_336_667)">
<path d="M74.2891 37.3954L78.6847 23.9602H80.9419L84.0307 33.0499H84.0703L87.1195 23.9602H89.3767L93.7327 37.3954H90.5251L88.1887 29.5815H88.1491L85.3771 37.3954H82.6843L79.8727 29.5815H79.8331L77.4967 37.3954H74.2891Z" fill="#1E1E1E"/>
<path d="M101.532 32.5316C101.532 31.0167 100.78 29.9801 99.5125 29.9801C98.2453 29.9801 97.4929 31.0167 97.4929 32.5316C97.4929 34.0067 98.2849 35.123 99.5125 35.123C100.74 35.123 101.532 33.9668 101.532 32.5316ZM94.5625 32.5316C94.5625 29.5815 96.5821 27.4685 99.5125 27.4685C102.403 27.4685 104.423 29.5416 104.423 32.5316C104.423 35.5615 102.403 37.6346 99.5125 37.6346C96.5821 37.6346 94.5625 35.5217 94.5625 32.5316Z" fill="#1E1E1E"/>
<path d="M105.852 32.5316C105.852 29.5815 107.752 27.4685 110.604 27.4685C111.792 27.4685 113.138 27.7077 114.247 28.824L112.465 30.5781C112.029 30.0997 111.435 29.9403 110.762 29.9403C109.495 29.9403 108.742 31.0167 108.742 32.4918C108.742 33.9668 109.495 35.0831 110.762 35.0831C111.435 35.0831 112.029 34.9237 112.465 34.4851L114.247 36.2393C113.138 37.3157 111.792 37.5948 110.604 37.5948C107.713 37.6346 105.852 35.5217 105.852 32.5316Z" fill="#1E1E1E"/>
<path d="M115.949 27.7075H122.681L121.81 30.1394H118.721V37.3952H115.949V27.7075Z" fill="#1E1E1E"/>
<path d="M130.403 32.5315C130.403 31.0166 129.65 29.98 128.383 29.98C127.116 29.98 126.363 31.0166 126.363 32.5315C126.363 34.0066 127.155 35.1229 128.383 35.1229C129.65 35.1229 130.403 33.9667 130.403 32.5315ZM123.473 32.5315C123.473 29.5813 125.492 27.4684 128.423 27.4684C131.313 27.4684 133.333 29.5415 133.333 32.5315C133.333 35.5614 131.313 37.6345 128.423 37.6345C125.492 37.6345 123.473 35.5215 123.473 32.5315Z" fill="#1E1E1E"/>
<path d="M140.222 35.0831C141.49 35.0831 142.4 34.0067 142.4 32.4918C142.4 31.0565 141.49 29.9801 140.222 29.9801C138.955 29.9801 138.044 31.0964 138.044 32.4918C138.005 34.0067 138.955 35.0831 140.222 35.0831ZM138.124 40.9436H135.352V27.7077H138.124V28.6645H138.163C138.599 28.1462 139.391 27.4685 140.856 27.4685C143.39 27.4685 145.252 29.5416 145.252 32.5316C145.252 35.5217 143.351 37.6346 140.856 37.6346C139.391 37.6346 138.559 36.9569 138.163 36.4386H138.124V40.9436Z" fill="#1E1E1E"/>
<path d="M149.171 30.1394H146.359V27.7075H155.032L154.121 30.1394H151.983V37.3952H149.171V30.1394Z" fill="#1E1E1E"/>
<path d="M161.254 35.0831C162.521 35.0831 163.432 34.0067 163.432 32.4918C163.432 31.0565 162.521 29.9801 161.254 29.9801C159.986 29.9801 159.076 31.0964 159.076 32.4918C159.036 34.0067 159.947 35.0831 161.254 35.0831ZM159.155 40.9436H156.383V27.7077H159.155V28.6645H159.194C159.63 28.1462 160.422 27.4685 161.887 27.4685C164.422 27.4685 166.283 29.5416 166.283 32.5316C166.283 35.5217 164.382 37.6346 161.887 37.6346C160.422 37.6346 159.59 36.9569 159.194 36.4386H159.155V40.9436Z" fill="#1E1E1E"/>
<path d="M173.525 33.6878V33.3688C173.129 33.2891 172.694 33.2492 172.298 33.2492C171.031 33.2492 170.476 33.7276 170.476 34.3655C170.476 35.0034 170.951 35.4818 171.823 35.4419C172.575 35.4021 173.525 34.9237 173.525 33.6878ZM167.625 34.3655C167.625 32.8506 168.892 31.216 171.862 31.216C172.298 31.216 172.971 31.2559 173.486 31.2957V31.1761C173.486 30.2592 172.773 29.9403 171.941 29.9403C171.229 29.9403 170.437 30.1795 169.684 30.6579L168.061 28.9835C169.169 27.9469 170.753 27.4685 172.06 27.4685C174.595 27.4685 176.258 28.9037 176.258 31.216V37.3555H173.525V36.3589H173.486C173.011 37.1961 172.1 37.5549 170.912 37.5549C169.051 37.6346 167.625 36.2393 167.625 34.3655Z" fill="#1E1E1E"/>
<path d="M178.836 27.7075H181.608V31.2956H184.776V27.7075H187.548V37.3952H184.776V33.7275H181.608V37.3952H178.836V27.7075Z" fill="#1E1E1E"/>
<path d="M189.562 32.5316C189.562 29.5815 191.463 27.4685 194.315 27.4685C195.503 27.4685 196.849 27.7077 197.958 28.824L196.176 30.5781C195.74 30.0997 195.146 29.9403 194.473 29.9403C193.206 29.9403 192.453 31.0167 192.453 32.4918C192.453 33.9668 193.206 35.0831 194.473 35.0831C195.146 35.0831 195.74 34.9237 196.176 34.4851L197.997 36.2791C196.888 37.3555 195.542 37.6346 194.354 37.6346C191.463 37.6346 189.562 35.5217 189.562 32.5316Z" fill="#1E1E1E"/>
<path d="M29.6208 0C13.266 0 0 13.3555 0 29.8206C0 38.0332 3.3264 45.5282 8.6328 50.8704C9.0684 51.309 9.702 51.588 10.3752 51.588C11.7216 51.588 12.7908 50.5116 12.7908 49.1561C12.7908 48.4784 12.5136 47.8405 12.0384 47.402C7.6032 42.9369 4.8312 36.6777 4.8312 29.8206C4.8312 16.0664 15.9588 4.86379 29.6208 4.86379C43.2828 4.86379 54.4104 16.0664 54.4104 29.8206C54.4104 36.7176 51.6384 42.9369 47.124 47.4817L26.2152 68.5714L29.6208 72L50.5692 50.9103C55.9152 45.5282 59.2416 38.0731 59.2416 29.8206C59.2416 13.3555 45.9756 0 29.6208 0Z" fill="#1E1E1E"/>
<path d="M28.6315 33.6877L25.7407 37.3555H19.2463L23.0875 34.4851C21.4243 34.5648 19.6819 34.0864 18.6523 32.7708C17.3059 31.0964 15.8011 29.1827 14.2963 26.6711L17.8603 29.2625L17.8207 28.7841C17.6623 23.9203 23.7607 19.9734 31.1659 20.2924C32.9875 20.3721 34.7299 20.7309 36.3931 21.2492C37.7791 21.7276 38.9671 22.2459 40.1155 23.1628C43.0063 25.5947 43.7191 28.6645 42.7291 31.3356H42.8479H44.9863L42.6103 31.6545C41.5015 34.1263 38.9275 36.1994 35.2051 36.917C38.7295 36.0399 41.0659 34.0864 41.9767 31.7741L34.0171 32.8904L32.3935 37.3555L27.4039 37.3156L30.4531 33.4087L28.6315 33.6877ZM47.2039 29.8206C47.2039 20.0532 39.3235 12.1196 29.6215 12.1196C19.9195 12.1196 12.0391 20.0532 12.0391 29.8206C12.0391 39.5881 19.9195 47.5216 29.6215 47.5216C39.3235 47.5216 47.2039 39.5881 47.2039 29.8206Z" fill="#1E1E1E"/>
<path d="M30.454 31.3753C30.9688 31.3753 31.4836 31.3753 31.9984 31.3753L36.7504 25.2756L34.5328 31.4152C36.8692 31.4152 39.4036 31.4152 42.136 31.3354C42.8884 28.9833 42.2548 26.352 40.0372 24.1593C38.9284 23.0431 37.7008 22.3255 36.196 21.8471C28.1572 19.1361 18.0592 24.1593 21.742 29.7407C21.9796 30.0995 22.2568 30.4584 22.7716 30.7374C23.6428 31.176 25.2268 31.4152 27.1276 31.3753H27.2068L35.206 25.3554L30.454 31.3753Z" fill="#1E1E1E"/>
</g>
<defs>
<clipPath id="clip0_336_667">
<rect width="198" height="72" fill="white"/>
</clipPath>
</defs>
</svg>
