<svg width="256" height="113" viewBox="0 0 256 113" fill="none" xmlns="http://www.w3.org/2000/svg">
<g opacity="0.5" clip-path="url(#clip0_2177_97)">
<path d="M76.2891 57.3954L80.6847 43.9602H82.9419L86.0307 53.0499H86.0703L89.1195 43.9602H91.3767L95.7327 57.3954H92.5251L90.1887 49.5815H90.1491L87.3771 57.3954H84.6843L81.8727 49.5815H81.8331L79.4967 57.3954H76.2891Z" fill="#1E1E1E"/>
<path d="M103.532 52.5316C103.532 51.0167 102.78 49.9801 101.513 49.9801C100.245 49.9801 99.4929 51.0167 99.4929 52.5316C99.4929 54.0067 100.285 55.123 101.513 55.123C102.74 55.123 103.532 53.9668 103.532 52.5316ZM96.5625 52.5316C96.5625 49.5815 98.5821 47.4685 101.513 47.4685C104.403 47.4685 106.423 49.5416 106.423 52.5316C106.423 55.5615 104.403 57.6346 101.513 57.6346C98.5821 57.6346 96.5625 55.5217 96.5625 52.5316Z" fill="#1E1E1E"/>
<path d="M107.852 52.5316C107.852 49.5815 109.752 47.4685 112.604 47.4685C113.792 47.4685 115.138 47.7077 116.247 48.824L114.465 50.5781C114.029 50.0997 113.435 49.9403 112.762 49.9403C111.495 49.9403 110.742 51.0167 110.742 52.4918C110.742 53.9668 111.495 55.0831 112.762 55.0831C113.435 55.0831 114.029 54.9237 114.465 54.4851L116.247 56.2393C115.138 57.3157 113.792 57.5948 112.604 57.5948C109.713 57.6346 107.852 55.5217 107.852 52.5316Z" fill="#1E1E1E"/>
<path d="M117.949 47.7075H124.681L123.81 50.1394H120.721V57.3952H117.949V47.7075Z" fill="#1E1E1E"/>
<path d="M132.403 52.5315C132.403 51.0166 131.65 49.98 130.383 49.98C129.116 49.98 128.363 51.0166 128.363 52.5315C128.363 54.0066 129.155 55.1229 130.383 55.1229C131.65 55.1229 132.403 53.9667 132.403 52.5315ZM125.473 52.5315C125.473 49.5813 127.492 47.4684 130.423 47.4684C133.313 47.4684 135.333 49.5415 135.333 52.5315C135.333 55.5614 133.313 57.6345 130.423 57.6345C127.492 57.6345 125.473 55.5215 125.473 52.5315Z" fill="#1E1E1E"/>
<path d="M142.222 55.0831C143.49 55.0831 144.4 54.0067 144.4 52.4918C144.4 51.0565 143.49 49.9801 142.222 49.9801C140.955 49.9801 140.044 51.0964 140.044 52.4918C140.005 54.0067 140.955 55.0831 142.222 55.0831ZM140.124 60.9436H137.352V47.7077H140.124V48.6645H140.163C140.599 48.1462 141.391 47.4685 142.856 47.4685C145.39 47.4685 147.252 49.5416 147.252 52.5316C147.252 55.5217 145.351 57.6346 142.856 57.6346C141.391 57.6346 140.559 56.9569 140.163 56.4386H140.124V60.9436Z" fill="#1E1E1E"/>
<path d="M151.171 50.1394H148.359V47.7075H157.032L156.121 50.1394H153.983V57.3952H151.171V50.1394Z" fill="#1E1E1E"/>
<path d="M163.254 55.0831C164.521 55.0831 165.432 54.0067 165.432 52.4918C165.432 51.0565 164.521 49.9801 163.254 49.9801C161.986 49.9801 161.076 51.0964 161.076 52.4918C161.036 54.0067 161.947 55.0831 163.254 55.0831ZM161.155 60.9436H158.383V47.7077H161.155V48.6645H161.194C161.63 48.1462 162.422 47.4685 163.887 47.4685C166.422 47.4685 168.283 49.5416 168.283 52.5316C168.283 55.5217 166.382 57.6346 163.887 57.6346C162.422 57.6346 161.59 56.9569 161.194 56.4386H161.155V60.9436Z" fill="#1E1E1E"/>
<path d="M175.525 53.6878V53.3688C175.129 53.2891 174.694 53.2492 174.298 53.2492C173.031 53.2492 172.476 53.7276 172.476 54.3655C172.476 55.0034 172.951 55.4818 173.823 55.4419C174.575 55.4021 175.525 54.9237 175.525 53.6878ZM169.625 54.3655C169.625 52.8506 170.892 51.216 173.862 51.216C174.298 51.216 174.971 51.2559 175.486 51.2957V51.1761C175.486 50.2592 174.773 49.9403 173.941 49.9403C173.229 49.9403 172.437 50.1795 171.684 50.6579L170.061 48.9835C171.169 47.9469 172.753 47.4685 174.06 47.4685C176.595 47.4685 178.258 48.9037 178.258 51.216V57.3555H175.525V56.3589H175.486C175.011 57.1961 174.1 57.5549 172.912 57.5549C171.051 57.6346 169.625 56.2393 169.625 54.3655Z" fill="#1E1E1E"/>
<path d="M180.836 47.7075H183.608V51.2956H186.776V47.7075H189.548V57.3952H186.776V53.7275H183.608V57.3952H180.836V47.7075Z" fill="#1E1E1E"/>
<path d="M191.562 52.5316C191.562 49.5815 193.463 47.4685 196.315 47.4685C197.503 47.4685 198.849 47.7077 199.958 48.824L198.176 50.5781C197.74 50.0997 197.146 49.9403 196.473 49.9403C195.206 49.9403 194.453 51.0167 194.453 52.4918C194.453 53.9668 195.206 55.0831 196.473 55.0831C197.146 55.0831 197.74 54.9237 198.176 54.4851L199.997 56.2791C198.888 57.3555 197.542 57.6346 196.354 57.6346C193.463 57.6346 191.562 55.5217 191.562 52.5316Z" fill="#1E1E1E"/>
<path d="M31.6208 20C15.266 20 2 33.3555 2 49.8206C2 58.0332 5.3264 65.5282 10.6328 70.8704C11.0684 71.309 11.702 71.588 12.3752 71.588C13.7216 71.588 14.7908 70.5116 14.7908 69.1561C14.7908 68.4784 14.5136 67.8405 14.0384 67.402C9.6032 62.9369 6.8312 56.6777 6.8312 49.8206C6.8312 36.0664 17.9588 24.8638 31.6208 24.8638C45.2828 24.8638 56.4104 36.0664 56.4104 49.8206C56.4104 56.7176 53.6384 62.9369 49.124 67.4817L28.2152 88.5714L31.6208 92L52.5692 70.9103C57.9152 65.5282 61.2416 58.0731 61.2416 49.8206C61.2416 33.3555 47.9756 20 31.6208 20Z" fill="#1E1E1E"/>
<path d="M30.6315 53.6877L27.7407 57.3555H21.2463L25.0875 54.4851C23.4243 54.5648 21.6819 54.0864 20.6523 52.7708C19.3059 51.0964 17.8011 49.1827 16.2963 46.6711L19.8603 49.2625L19.8207 48.7841C19.6623 43.9203 25.7607 39.9734 33.1659 40.2924C34.9875 40.3721 36.7299 40.7309 38.3931 41.2492C39.7791 41.7276 40.9671 42.2459 42.1155 43.1628C45.0063 45.5947 45.7191 48.6645 44.7291 51.3356H44.8479H46.9863L44.6103 51.6545C43.5015 54.1263 40.9275 56.1994 37.2051 56.917C40.7295 56.0399 43.0659 54.0864 43.9767 51.7741L36.0171 52.8904L34.3935 57.3555L29.4039 57.3156L32.4531 53.4087L30.6315 53.6877ZM49.2039 49.8206C49.2039 40.0532 41.3235 32.1196 31.6215 32.1196C21.9195 32.1196 14.0391 40.0532 14.0391 49.8206C14.0391 59.5881 21.9195 67.5216 31.6215 67.5216C41.3235 67.5216 49.2039 59.5881 49.2039 49.8206Z" fill="#1E1E1E"/>
<path d="M32.454 51.3753C32.9688 51.3753 33.4836 51.3753 33.9984 51.3753L38.7504 45.2756L36.5328 51.4152C38.8692 51.4152 41.4036 51.4152 44.136 51.3354C44.8884 48.9833 44.2548 46.352 42.0372 44.1593C40.9284 43.0431 39.7008 42.3255 38.196 41.8471C30.1572 39.1361 20.0592 44.1593 23.742 49.7407C23.9796 50.0995 24.2568 50.4584 24.7716 50.7374C25.6428 51.176 27.2268 51.4152 29.1276 51.3753H29.2068L37.206 45.3554L32.454 51.3753Z" fill="#1E1E1E"/>
</g>
<defs>
<clipPath id="clip0_2177_97">
<rect width="198" height="72" fill="white" transform="translate(2 20)"/>
</clipPath>
</defs>
</svg>
