<svg width="211" height="58" viewBox="0 0 211 58" fill="none" xmlns="http://www.w3.org/2000/svg">
<g opacity="0.5" clip-path="url(#clip0_336_654)">
<path d="M167.674 17.702L175.491 11.9333H149.32V46.4889H175.491V40.7202H156.798V31.8975H172.772V26.1288H156.798V17.702H167.674Z" fill="#1E1E1E"/>
<path d="M129.549 25.3936H120.485V17.702H134.987L142.804 11.9333H113.008V46.4889H128.586C137.309 46.4889 142.351 42.53 142.351 35.6302C142.351 29.0132 137.819 25.3936 129.549 25.3936ZM128.302 40.7202H120.485V31.1623H128.302C133.061 31.1623 135.27 32.7459 135.27 35.9695C135.27 39.1932 132.891 40.7202 128.302 40.7202Z" fill="#1E1E1E"/>
<path d="M196.679 11.9333H182.461V46.4889H189.938V36.7048H196.736C205.799 36.7048 211.464 31.9541 211.464 24.3191C211.464 16.684 205.799 11.9333 196.679 11.9333ZM196.509 30.9361H189.882V17.702H196.509C201.324 17.702 203.93 20.0774 203.93 24.3191C203.93 28.5607 201.324 30.9361 196.509 30.9361Z" fill="#1E1E1E"/>
<path d="M100.207 39.0236C98.2239 40.0982 96.0147 40.6637 93.7489 40.6637C87.0079 40.6637 82.1363 35.8565 82.1363 29.2395C82.1363 22.6224 87.0079 17.8152 93.7489 17.8152C96.1847 17.7586 98.5638 18.5504 100.546 19.9643L105.928 16.0054L105.588 15.6661C102.472 12.8949 98.2806 11.481 93.5223 11.481C88.3675 11.481 83.6658 13.2342 80.267 16.4013C76.8682 19.6815 74.9422 24.2626 75.0555 29.0132C74.9989 33.8205 76.8682 38.458 80.267 41.8514C83.8357 45.1882 88.594 47.0545 93.4656 46.9414C98.8471 46.9414 103.549 45.0751 106.721 41.6817L101.906 38.1187L100.207 39.0236Z" fill="#1E1E1E"/>
<path d="M51.6617 11.707C53.0212 13.4603 54.1542 15.3832 55.1171 17.4192L28.9465 36.7047L17.957 29.8049V21.5477L28.8898 28.391L51.6617 11.707Z" fill="#1E1E1E"/>
<path d="M6.79952 29.2395C6.79952 28.8436 6.79952 28.5043 6.85616 28.1084L0.228522 27.769C0.228522 28.2215 0.171875 28.7305 0.171875 29.1829C0.171875 37.1007 3.40073 44.2833 8.61221 49.4865L13.3139 44.7923C9.29197 40.8334 6.79952 35.3475 6.79952 29.2395Z" fill="#1E1E1E"/>
<path d="M28.8888 7.18245C29.2854 7.18245 29.6252 7.18245 30.0218 7.23901L30.3616 0.621985C29.9085 0.621985 29.3986 0.56543 28.9455 0.56543C21.015 0.56543 13.8209 3.78911 8.60938 8.99224L13.311 13.6864C17.2763 9.67091 22.8277 7.18245 28.8888 7.18245Z" fill="#1E1E1E"/>
<path d="M28.8908 51.2959C28.4943 51.2959 28.1544 51.2959 27.7578 51.2393L27.418 57.8564C27.8711 57.8564 28.381 57.9129 28.8341 57.9129C36.7646 57.9129 43.9588 54.6893 49.1702 49.4861L44.4686 44.792C40.5033 48.864 35.0086 51.2959 28.8908 51.2959Z" fill="#1E1E1E"/>
<path d="M41.3529 11.0284L46.9609 6.89983C42.0326 2.94093 35.7449 0.509033 28.8906 0.509033V7.12606C33.5356 7.18261 37.8408 8.59651 41.3529 11.0284Z" fill="#1E1E1E"/>
<path d="M57.6655 29.2393C57.6655 27.4861 57.4956 25.7894 57.2123 24.0928L51.0379 28.6738C51.0379 28.8435 51.0379 29.0697 51.0379 29.2393C51.0379 35.7433 48.2055 41.5685 43.7305 45.584L48.2055 50.5043C53.9835 45.3012 57.6655 37.6662 57.6655 29.2393Z" fill="#1E1E1E"/>
<path d="M28.8889 51.2962C22.3746 51.2962 16.54 48.4684 12.5181 44.0005L7.58984 48.4684C12.858 54.2936 20.4486 57.9132 28.8889 57.9132V51.2962Z" fill="#1E1E1E"/>
<path d="M14.1069 12.8947L9.63184 7.97437C3.79725 13.2341 0.171875 20.8125 0.171875 29.2393H6.79952C6.79952 22.792 9.63184 16.9102 14.1069 12.8947Z" fill="#1E1E1E"/>
</g>
<defs>
<clipPath id="clip0_336_654">
<rect width="211" height="58" fill="white"/>
</clipPath>
</defs>
</svg>
