<svg width="256" height="113" viewBox="0 0 256 113" fill="none" xmlns="http://www.w3.org/2000/svg">
<g opacity="0.5">
<path d="M167.502 44.193L175.319 38.4243H149.148V72.9799H175.319V67.2112H156.626V58.3885H172.6V52.6198H156.626V44.193H167.502Z" fill="#1E1E1E"/>
<path d="M129.377 51.8846H120.313V44.193H134.815L142.632 38.4243H112.836V72.9799H128.414C137.137 72.9799 142.179 69.021 142.179 62.1212C142.179 55.5042 137.647 51.8846 129.377 51.8846ZM128.131 67.2112H120.313V57.6533H128.131C132.889 57.6533 135.098 59.2368 135.098 62.4605C135.098 65.6842 132.719 67.2112 128.131 67.2112Z" fill="#1E1E1E"/>
<path d="M196.507 38.4243H182.289V72.9799H189.766V63.1957H196.564C205.627 63.1957 211.292 58.4451 211.292 50.81C211.292 43.175 205.627 38.4243 196.507 38.4243ZM196.337 57.4271H189.71V44.193H196.337C201.152 44.193 203.758 46.5683 203.758 50.81C203.758 55.0517 201.152 57.4271 196.337 57.4271Z" fill="#1E1E1E"/>
<path d="M100.035 65.5146C98.0521 66.5891 95.8429 67.1547 93.577 67.1547C86.8361 67.1547 81.9645 62.3475 81.9645 55.7304C81.9645 49.1134 86.8361 44.3062 93.577 44.3062C96.0128 44.2496 98.3919 45.0414 100.375 46.4553L105.756 42.4964L105.416 42.157C102.301 39.3858 98.1087 37.9719 93.3504 37.9719C88.1956 37.9719 83.4939 39.7252 80.0951 42.8923C76.6963 46.1725 74.7703 50.7535 74.8836 55.5042C74.827 60.3114 76.6963 64.949 80.0951 68.3424C83.6638 71.6792 88.4222 73.5455 93.2938 73.4324C98.6752 73.4324 103.377 71.566 106.549 68.1727L101.734 64.6097L100.035 65.5146Z" fill="#1E1E1E"/>
<path d="M51.4898 38.198C52.8494 39.9512 53.9823 41.8741 54.9453 43.9101L28.7746 63.1956L17.7852 56.2958V48.0387L28.7179 54.8819L51.4898 38.198Z" fill="#1E1E1E"/>
<path d="M6.62764 55.7305C6.62764 55.3346 6.62764 54.9952 6.68429 54.5993L0.0566465 54.26C0.0566465 54.7125 0 55.2215 0 55.6739C0 63.5917 3.22885 70.7743 8.44033 75.9774L13.142 71.2833C9.12009 67.3244 6.62764 61.8385 6.62764 55.7305Z" fill="#1E1E1E"/>
<path d="M28.717 33.6734C29.1135 33.6734 29.4534 33.6734 29.8499 33.73L30.1898 27.113C29.7366 27.113 29.2268 27.0564 28.7736 27.0564C20.8431 27.0564 13.649 30.2801 8.4375 35.4832L13.1392 40.1773C17.1044 36.1619 22.6558 33.6734 28.717 33.6734Z" fill="#1E1E1E"/>
<path d="M28.7189 77.7869C28.3224 77.7869 27.9825 77.7869 27.586 77.7303L27.2461 84.3473C27.6993 84.3473 28.2091 84.4039 28.6623 84.4039C36.5928 84.4039 43.7869 81.1802 48.9984 75.9771L44.2967 71.283C40.3314 75.355 34.8367 77.7869 28.7189 77.7869Z" fill="#1E1E1E"/>
<path d="M41.181 37.5194L46.789 33.3908C41.8607 29.4319 35.573 27 28.7188 27V33.617C33.3638 33.6736 37.6689 35.0875 41.181 37.5194Z" fill="#1E1E1E"/>
<path d="M57.4936 55.7303C57.4936 53.9771 57.3237 52.2804 57.0405 50.5837L50.866 55.1648C50.866 55.3344 50.866 55.5606 50.866 55.7303C50.866 62.2342 48.0337 68.0595 43.5586 72.0749L48.0337 76.9953C53.8116 71.7921 57.4936 64.1571 57.4936 55.7303Z" fill="#1E1E1E"/>
<path d="M28.7171 77.7871C22.2027 77.7871 16.3681 74.9594 12.3462 70.4915L7.41797 74.9594C12.6861 80.7846 20.2767 84.4042 28.7171 84.4042V77.7871Z" fill="#1E1E1E"/>
<path d="M13.935 39.3857L9.45997 34.4653C3.62538 39.725 0 47.3035 0 55.7303H6.62764C6.62764 49.2829 9.45997 43.4011 13.935 39.3857Z" fill="#1E1E1E"/>
</g>
</svg>
