<svg width="256" height="113" viewBox="0 0 256 113" fill="none" xmlns="http://www.w3.org/2000/svg">
<g opacity="0.5" clip-path="url(#clip0_2177_941)">
<mask id="mask0_2177_941" style="mask-type:luminance" maskUnits="userSpaceOnUse" x="0" y="21" width="219" height="71">
<path d="M0 21H219V92H0V21Z" fill="white"/>
</mask>
<g mask="url(#mask0_2177_941)">
<path d="M33.2266 76.2352C34.3879 77.5725 35.6324 78.8466 36.952 80.0518C43.4186 85.9544 51.7056 90.196 60.9535 91.9975V86.693C53.271 84.983 46.3884 81.3527 40.9577 76.395C39.2448 74.8311 37.6761 73.1355 36.273 71.3267C35.4382 72.8465 34.5294 74.326 33.5519 75.7625L33.6057 75.8415L33.5519 75.7631C33.4446 75.921 33.3359 76.0784 33.2266 76.2352ZM24.8671 71.101C23.4199 72.9949 21.7922 74.7662 20.0078 76.395C14.5744 81.3554 7.68656 84.9866 0 86.6953V91.9998C9.25275 90.2005 17.5445 85.9574 24.0135 80.0518C25.3968 78.7891 26.6958 77.4508 27.9038 76.0445L27.7112 75.7631L27.6572 75.8415L27.7107 75.7625C26.6856 74.255 25.7362 72.6998 24.8671 71.101ZM0 83.3423C6.50563 81.6575 12.3343 78.4641 16.9963 74.2079C20.5002 71.0094 23.3454 67.2103 25.3271 62.9997C26.6118 66.4661 28.3285 69.7105 30.463 72.7688C32.513 70.1352 34.1525 66.6675 35.6371 63.0043C37.6187 67.2133 40.463 71.0107 43.9658 74.2079C48.6258 78.4624 54.4511 81.6541 60.9535 83.34V77.9244C56.0165 76.4019 51.5845 73.8499 47.971 70.5515C41.9139 65.0222 38.1539 57.3976 38.1539 49.0122V25.792H38.1533H32.489L32.4876 49.0122C32.4876 53.0953 31.7841 57.8625 30.4828 61.5705C29.1819 57.8625 28.4783 53.1008 28.4783 49.0122V25.792H22.813L22.8081 49.0122C22.8065 57.3921 19.0482 65.0222 12.991 70.5515C9.37505 73.852 4.94018 76.4051 0 77.9267V83.3423ZM41.5085 47.624V43.2635H47.1732V47.624V47.9423V48.4951C47.1732 54.6042 49.9136 60.1608 54.3286 64.1904C56.2493 65.9441 58.4865 67.4077 60.9535 68.502V74.1305C56.93 72.7382 53.3136 70.5777 50.3228 67.8472C44.8841 62.8828 41.5085 56.0322 41.5085 48.4951V47.9423V47.624ZM13.7419 47.624V43.2635H19.4073V47.624V47.9423V48.4951C19.4073 56.0322 16.032 62.8828 10.5931 67.8472C7.61116 70.5694 4.00759 72.7254 0 74.1171V68.4858C2.45115 67.3929 4.67571 65.935 6.58716 64.1904C11.0015 60.1608 13.7419 54.6042 13.7419 48.4951V47.9423V47.624Z" fill="#1E1E1E"/>
<path d="M151.434 74.4613C150.925 74.4613 150.598 74.1176 150.598 73.6293V62.63C150.598 62.1414 150.925 61.7977 151.434 61.7977H156.146V65.416H154.236V63.6067H152.508V72.6523H154.236V70.3005H156.146V74.4613H151.434Z" fill="#1E1E1E"/>
<path d="M162.968 61.7979V74.4614H161.058V63.6068H159.057V74.4614H157.146V61.7979H162.968Z" fill="#1E1E1E"/>
<path d="M167.881 63.6068H165.971V72.6524H167.881V63.6068ZM164.897 74.4614C164.388 74.4614 164.061 74.1177 164.061 73.6293V62.63C164.061 62.1415 164.388 61.7979 164.897 61.7979H168.954C169.464 61.7979 169.791 62.1415 169.791 62.63V73.6293C169.791 74.1177 169.464 74.4614 168.954 74.4614H164.897Z" fill="#1E1E1E"/>
<path d="M172.793 68.4914H174.612V63.6068H172.793V68.4914ZM172.793 70.3007V74.4614H170.883V61.7979H175.685C176.195 61.7979 176.522 62.1415 176.522 62.63V69.4682C176.522 69.9567 176.195 70.3007 175.685 70.3007H172.793Z" fill="#1E1E1E"/>
<path d="M177.158 61.7979H182.707V63.6068H180.888V74.4614H178.977V63.6068H177.158V61.7979Z" fill="#1E1E1E"/>
<path d="M187.436 74.4613V67.3697L185.344 71.7297V74.4613H183.434V61.7977H185.344V68.238L187.436 63.8783V61.7977H189.346V74.4613H187.436Z" fill="#1E1E1E"/>
<path d="M192.348 72.6524H194.076V68.4914H192.348V72.6524ZM194.076 63.6068H192.348V66.6824H194.076V63.6068ZM195.986 66.1758C195.986 66.8995 195.604 67.388 195.04 67.5869C195.604 67.7858 195.986 68.2563 195.986 68.998V73.6293C195.986 74.1177 195.659 74.4614 195.149 74.4614H190.438V61.7979H195.149C195.659 61.7979 195.986 62.1415 195.986 62.63V66.1758Z" fill="#1E1E1E"/>
<path d="M202.991 61.7979V74.4614H201.08V68.4914H198.988V74.4614H197.078V61.7979H198.988V66.6824H201.08V61.7979H202.991Z" fill="#1E1E1E"/>
<path d="M210.085 61.7979H211.995V74.4614H210.085V61.7979ZM205.992 72.6524H207.448V68.3105H205.992V72.6524ZM209.358 73.6293C209.358 74.1177 209.03 74.4614 208.521 74.4614H204.082V61.7979H205.992V66.5015H208.521C209.03 66.5015 209.358 66.8452 209.358 67.3335V73.6293Z" fill="#1E1E1E"/>
<path d="M214.543 59.8982H217.181L216.817 61.255H214.907L214.543 59.8982ZM217.09 74.4613V67.3697L214.998 71.7297V74.4613H213.088V61.7977H214.998V68.238L217.09 63.8783V61.7977H219V74.4613H217.09Z" fill="#1E1E1E"/>
<path d="M156.692 90.8539H154.673L152.999 84.8839H152.508V90.8539H150.598V78.1903H152.508V83.0749H153.053L154.673 78.1903H156.692L154.727 83.9794L156.692 90.8539Z" fill="#1E1E1E"/>
<path d="M161.148 79.9993H159.238V89.0449H161.148V79.9993ZM158.165 90.8539C157.655 90.8539 157.328 90.5102 157.328 90.0216V79.0224C157.328 78.534 157.655 78.1903 158.165 78.1903H162.222C162.731 78.1903 163.059 78.534 163.059 79.0224V90.0216C163.059 90.5102 162.731 90.8539 162.222 90.8539H158.165Z" fill="#1E1E1E"/>
<path d="M169.645 78.1903H171.973V90.8539H170.063V85.4267L170.372 81.8085H170.281L168.953 88.3211H167.17L165.806 81.8085H165.715L166.06 85.4267V90.8539H164.15V78.1903H166.479L168.025 85.4267H168.08L169.645 78.1903Z" fill="#1E1E1E"/>
<path d="M178.886 78.1903V90.8539H176.976V79.9993H174.975V90.8539H173.064V78.1903H178.886Z" fill="#1E1E1E"/>
<path d="M182.052 90.8539H179.523V89.0449H180.251L180.87 78.1903H185.527V90.8539H183.617V79.9993H182.671L182.052 90.8539Z" fill="#1E1E1E"/>
<path d="M186.617 78.1903H191.347V79.9993H188.527V83.0749H191.256V84.8839H188.527V89.0449H191.347V90.8539H186.617V78.1903Z" fill="#1E1E1E"/>
<path d="M198.442 90.8539H196.423L194.749 84.8839H194.258V90.8539H192.348V78.1903H194.258V83.0749H194.803L196.423 78.1903H198.442L196.477 83.9794L198.442 90.8539Z" fill="#1E1E1E"/>
<path d="M199.917 90.8539C199.407 90.8539 199.08 90.5102 199.08 90.0218V79.0226C199.08 78.534 199.407 78.1903 199.917 78.1903H204.628V81.8085H202.718V79.9993H200.99V89.0449H202.718V86.6931H204.628V90.8539H199.917Z" fill="#1E1E1E"/>
<path d="M76.8934 52.0034H81.0947V41.8884H76.8934V52.0034ZM81.0947 30.0149H76.8934V37.491H81.0947V30.0149ZM85.7382 36.2595C85.7382 38.0187 84.8096 39.2061 83.4386 39.6898C84.8096 40.1737 85.7382 41.3169 85.7382 43.1199V54.378C85.7382 55.5654 84.9423 56.4009 83.7038 56.4009H72.25V25.6174H83.7038C84.9423 25.6174 85.7382 26.453 85.7382 27.6402V36.2595Z" fill="#1E1E1E"/>
<path d="M97.6775 30.0149H93.0341V52.0034H97.6775V30.0149ZM90.425 56.4009C89.1869 56.4009 88.3906 55.5654 88.3906 54.378V27.6402C88.3906 26.453 89.1869 25.6174 90.425 25.6174H100.287C101.525 25.6174 102.321 26.453 102.321 27.6402V54.378C102.321 55.5654 101.525 56.4009 100.287 56.4009H90.425Z" fill="#1E1E1E"/>
<path d="M109.618 41.8885H114.04V30.015H109.618V41.8885ZM109.618 46.2863V56.4009H104.975V25.6174H116.65C117.888 25.6174 118.684 26.453 118.684 27.6402V44.2633C118.684 45.4508 117.888 46.2863 116.65 46.2863H109.618Z" fill="#1E1E1E"/>
<path d="M130.404 30.0149H125.761V52.0034H130.404V30.0149ZM123.152 56.4009C121.913 56.4009 121.117 55.5654 121.117 54.378V27.6402C121.117 26.453 121.913 25.6174 123.152 25.6174H133.014C134.252 25.6174 135.048 26.453 135.048 27.6402V54.378C135.048 55.5654 134.252 56.4009 133.014 56.4009H123.152Z" fill="#1E1E1E"/>
<path d="M142.345 52.0034H146.546V41.4491H142.345V52.0034ZM149.155 37.0513C150.393 37.0513 151.189 37.8868 151.189 39.0743V54.378C151.189 55.5654 150.393 56.4009 149.155 56.4009H137.701V25.6174H150.747V30.0149H142.345V37.0513H149.155Z" fill="#1E1E1E"/>
<path d="M158.264 52.0034H162.466V41.4491H158.264V52.0034ZM153.621 56.4009V25.6174H158.264V37.0513H165.075C166.313 37.0513 167.109 37.8868 167.109 39.0743V54.378C167.109 55.5654 166.313 56.4009 165.075 56.4009H153.621Z" fill="#1E1E1E"/>
<path d="M176.528 20.9999H180.066V24.2981H176.528V20.9999ZM170.558 20.9999H174.096V24.2981H170.558V20.9999ZM169.541 25.6174H181.039V30.0149H174.184V37.491H180.818V41.8885H174.184V52.0034H181.039V56.4009H169.541V25.6174Z" fill="#1E1E1E"/>
<path d="M188.114 52.0034H192.315V41.8884H188.114V52.0034ZM192.315 30.0149H188.114V37.491H192.315V30.0149ZM196.959 36.2595C196.959 38.0187 196.03 39.2061 194.659 39.6898C196.03 40.1737 196.959 41.3169 196.959 43.1199V54.378C196.959 55.5654 196.163 56.4009 194.924 56.4009H183.471V25.6174H194.924C196.163 25.6174 196.959 26.453 196.959 27.6402V36.2595Z" fill="#1E1E1E"/>
<path d="M214.205 25.6174H218.848V56.4009H214.205V25.6174ZM204.255 52.0034H207.792V41.4491H204.255V52.0034ZM212.436 54.378C212.436 55.5654 211.64 56.4009 210.402 56.4009H199.611V25.6174H204.255V37.0513H210.402C211.64 37.0513 212.436 37.8868 212.436 39.0743V54.378Z" fill="#1E1E1E"/>
<path d="M85.658 60.6727V65.0701H76.8934V91.4562H72.25V60.6727H85.658Z" fill="#1E1E1E"/>
<path d="M97.6775 65.0701H93.0341V87.0585H97.6775V65.0701ZM90.425 91.4562C89.1869 91.4562 88.3906 90.6206 88.3906 89.4332V62.6953C88.3906 61.5082 89.1869 60.6727 90.425 60.6727H100.287C101.525 60.6727 102.321 61.5082 102.321 62.6953V89.4332C102.321 90.6206 101.525 91.4562 100.287 91.4562H90.425Z" fill="#1E1E1E"/>
<path d="M109.618 76.9438H114.041V65.0702H109.618V76.9438ZM109.618 81.3416V91.4562H104.975V60.6727H116.65C117.888 60.6727 118.684 61.5082 118.684 62.6953V79.3186C118.684 80.506 117.888 81.3416 116.65 81.3416H109.618Z" fill="#1E1E1E"/>
<path d="M135.711 60.6727H140.354V91.4562H135.711V60.6727ZM125.761 87.0585H129.299V76.5043H125.761V87.0585ZM133.942 89.4332C133.942 90.6206 133.146 91.4562 131.908 91.4562H121.117V60.6727H125.761V72.1065H131.908C133.146 72.1065 133.942 72.9421 133.942 74.1296V89.4332Z" fill="#1E1E1E"/>
</g>
</g>
<defs>
<clipPath id="clip0_2177_941">
<rect width="219" height="71" fill="white" transform="translate(0 21)"/>
</clipPath>
</defs>
</svg>
