<svg width="219" height="71" viewBox="0 0 219 71" fill="none" xmlns="http://www.w3.org/2000/svg">
<g opacity="0.5" clip-path="url(#clip0_336_1450)">
<mask id="mask0_336_1450" style="mask-type:luminance" maskUnits="userSpaceOnUse" x="0" y="0" width="219" height="71">
<path d="M0 7.62939e-06H219V71H0V7.62939e-06Z" fill="white"/>
</mask>
<g mask="url(#mask0_336_1450)">
<path d="M33.2266 55.2352C34.3879 56.5725 35.6324 57.8466 36.952 59.0518C43.4186 64.9544 51.7056 69.196 60.9535 70.9975V65.693C53.271 63.983 46.3884 60.3527 40.9577 55.395C39.2448 53.8311 37.6761 52.1355 36.273 50.3267C35.4382 51.8465 34.5294 53.326 33.5519 54.7625L33.6057 54.8415L33.5519 54.7631C33.4446 54.921 33.3359 55.0784 33.2266 55.2352ZM24.8671 50.101C23.4199 51.9949 21.7922 53.7662 20.0078 55.395C14.5744 60.3554 7.68656 63.9866 0 65.6953V70.9998C9.25276 69.2005 17.5445 64.9574 24.0135 59.0518C25.3968 57.7891 26.6958 56.4508 27.9038 55.0445L27.7112 54.7631L27.6572 54.8415L27.7107 54.7625C26.6856 53.255 25.7362 51.6998 24.8671 50.101ZM0 62.3423C6.50563 60.6575 12.3343 57.4641 16.9963 53.2079C20.5002 50.0094 23.3454 46.2103 25.3271 41.9997C26.6118 45.4661 28.3285 48.7105 30.463 51.7688C32.513 49.1352 34.1525 45.6675 35.6371 42.0043C37.6187 46.2133 40.463 50.0107 43.9658 53.2079C48.6258 57.4624 54.4511 60.6541 60.9535 62.34V56.9244C56.0165 55.4019 51.5845 52.8499 47.971 49.5515C41.9139 44.0222 38.1539 36.3976 38.1539 28.0122V4.79195H38.1533H32.489L32.4876 28.0122C32.4876 32.0953 31.7841 36.8625 30.4828 40.5705C29.1819 36.8625 28.4783 32.1008 28.4783 28.0122V4.79195H22.813L22.8081 28.0122C22.8065 36.3921 19.0482 44.0222 12.991 49.5515C9.37505 52.852 4.94018 55.4051 0 56.9267V62.3423ZM41.5085 26.624V22.2635H47.1732V26.624V26.9423V27.4951C47.1732 33.6042 49.9136 39.1608 54.3286 43.1904C56.2493 44.9441 58.4865 46.4077 60.9535 47.502V53.1305C56.93 51.7382 53.3136 49.5777 50.3228 46.8472C44.8841 41.8828 41.5085 35.0322 41.5085 27.4951V26.9423V26.624ZM13.7419 26.624V22.2635H19.4073V26.624V26.9423V27.4951C19.4073 35.0322 16.032 41.8828 10.5931 46.8472C7.61116 49.5694 4.00759 51.7254 0 53.1171V47.4858C2.45115 46.3929 4.67571 44.935 6.58716 43.1904C11.0015 39.1608 13.7419 33.6042 13.7419 27.4951V26.9423V26.624Z" fill="#1E1E1E"/>
<path d="M151.434 53.4613C150.925 53.4613 150.598 53.1176 150.598 52.6293V41.63C150.598 41.1414 150.925 40.7977 151.434 40.7977H156.146V44.416H154.236V42.6067H152.508V51.6523H154.236V49.3005H156.146V53.4613H151.434Z" fill="#1E1E1E"/>
<path d="M162.968 40.7979V53.4614H161.058V42.6068H159.057V53.4614H157.146V40.7979H162.968Z" fill="#1E1E1E"/>
<path d="M167.881 42.6068H165.971V51.6524H167.881V42.6068ZM164.897 53.4614C164.388 53.4614 164.061 53.1177 164.061 52.6293V41.63C164.061 41.1415 164.388 40.7979 164.897 40.7979H168.954C169.464 40.7979 169.791 41.1415 169.791 41.63V52.6293C169.791 53.1177 169.464 53.4614 168.954 53.4614H164.897Z" fill="#1E1E1E"/>
<path d="M172.793 47.4914H174.612V42.6068H172.793V47.4914ZM172.793 49.3007V53.4614H170.883V40.7979H175.685C176.195 40.7979 176.522 41.1415 176.522 41.63V48.4682C176.522 48.9567 176.195 49.3007 175.685 49.3007H172.793Z" fill="#1E1E1E"/>
<path d="M177.158 40.7979H182.707V42.6068H180.888V53.4614H178.977V42.6068H177.158V40.7979Z" fill="#1E1E1E"/>
<path d="M187.436 53.4613V46.3697L185.344 50.7297V53.4613H183.434V40.7977H185.344V47.238L187.436 42.8783V40.7977H189.346V53.4613H187.436Z" fill="#1E1E1E"/>
<path d="M192.348 51.6524H194.076V47.4914H192.348V51.6524ZM194.076 42.6068H192.348V45.6824H194.076V42.6068ZM195.986 45.1758C195.986 45.8995 195.604 46.388 195.04 46.5869C195.604 46.7858 195.986 47.2563 195.986 47.998V52.6293C195.986 53.1177 195.659 53.4614 195.149 53.4614H190.438V40.7979H195.149C195.659 40.7979 195.986 41.1415 195.986 41.63V45.1758Z" fill="#1E1E1E"/>
<path d="M202.991 40.7979V53.4614H201.08V47.4914H198.988V53.4614H197.078V40.7979H198.988V45.6824H201.08V40.7979H202.991Z" fill="#1E1E1E"/>
<path d="M210.085 40.7979H211.995V53.4614H210.085V40.7979ZM205.992 51.6524H207.448V47.3105H205.992V51.6524ZM209.358 52.6293C209.358 53.1177 209.03 53.4614 208.521 53.4614H204.082V40.7979H205.992V45.5015H208.521C209.03 45.5015 209.358 45.8452 209.358 46.3335V52.6293Z" fill="#1E1E1E"/>
<path d="M214.543 38.8982H217.181L216.817 40.255H214.907L214.543 38.8982ZM217.09 53.4613V46.3697L214.998 50.7297V53.4613H213.088V40.7977H214.998V47.238L217.09 42.8783V40.7977H219V53.4613H217.09Z" fill="#1E1E1E"/>
<path d="M156.692 69.8539H154.673L152.999 63.8839H152.508V69.8539H150.598V57.1903H152.508V62.0749H153.053L154.673 57.1903H156.692L154.727 62.9794L156.692 69.8539Z" fill="#1E1E1E"/>
<path d="M161.148 58.9993H159.238V68.0449H161.148V58.9993ZM158.165 69.8539C157.655 69.8539 157.328 69.5102 157.328 69.0216V58.0224C157.328 57.534 157.655 57.1903 158.165 57.1903H162.222C162.731 57.1903 163.059 57.534 163.059 58.0224V69.0216C163.059 69.5102 162.731 69.8539 162.222 69.8539H158.165Z" fill="#1E1E1E"/>
<path d="M169.645 57.1903H171.973V69.8539H170.063V64.4267L170.372 60.8085H170.281L168.953 67.3211H167.17L165.806 60.8085H165.715L166.06 64.4267V69.8539H164.15V57.1903H166.479L168.025 64.4267H168.08L169.645 57.1903Z" fill="#1E1E1E"/>
<path d="M178.886 57.1903V69.8539H176.976V58.9993H174.975V69.8539H173.064V57.1903H178.886Z" fill="#1E1E1E"/>
<path d="M182.052 69.8539H179.523V68.0449H180.251L180.87 57.1903H185.527V69.8539H183.617V58.9993H182.671L182.052 69.8539Z" fill="#1E1E1E"/>
<path d="M186.617 57.1903H191.347V58.9993H188.527V62.0749H191.256V63.8839H188.527V68.0449H191.347V69.8539H186.617V57.1903Z" fill="#1E1E1E"/>
<path d="M198.442 69.8539H196.423L194.749 63.8839H194.258V69.8539H192.348V57.1903H194.258V62.0749H194.803L196.423 57.1903H198.442L196.477 62.9794L198.442 69.8539Z" fill="#1E1E1E"/>
<path d="M199.917 69.8539C199.407 69.8539 199.08 69.5102 199.08 69.0218V58.0226C199.08 57.534 199.407 57.1903 199.917 57.1903H204.628V60.8085H202.718V58.9993H200.99V68.0449H202.718V65.6931H204.628V69.8539H199.917Z" fill="#1E1E1E"/>
<path d="M76.8934 31.0034H81.0947V20.8884H76.8934V31.0034ZM81.0947 9.01492H76.8934V16.491H81.0947V9.01492ZM85.7382 15.2595C85.7382 17.0187 84.8096 18.2061 83.4386 18.6898C84.8096 19.1737 85.7382 20.3169 85.7382 22.1199V33.378C85.7382 34.5654 84.9423 35.4009 83.7038 35.4009H72.25V4.6174H83.7038C84.9423 4.6174 85.7382 5.45302 85.7382 6.64015V15.2595Z" fill="#1E1E1E"/>
<path d="M97.6775 9.01492H93.0341V31.0034H97.6775V9.01492ZM90.425 35.4009C89.1869 35.4009 88.3906 34.5654 88.3906 33.378V6.64015C88.3906 5.45302 89.1869 4.6174 90.425 4.6174H100.287C101.525 4.6174 102.321 5.45302 102.321 6.64015V33.378C102.321 34.5654 101.525 35.4009 100.287 35.4009H90.425Z" fill="#1E1E1E"/>
<path d="M109.618 20.8885H114.04V9.01505H109.618V20.8885ZM109.618 25.2863V35.4009H104.975V4.6174H116.65C117.888 4.6174 118.684 5.45302 118.684 6.64015V23.2633C118.684 24.4508 117.888 25.2863 116.65 25.2863H109.618Z" fill="#1E1E1E"/>
<path d="M130.404 9.01492H125.761V31.0034H130.404V9.01492ZM123.152 35.4009C121.913 35.4009 121.117 34.5654 121.117 33.378V6.64015C121.117 5.45302 121.913 4.6174 123.152 4.6174H133.014C134.252 4.6174 135.048 5.45302 135.048 6.64015V33.378C135.048 34.5654 134.252 35.4009 133.014 35.4009H123.152Z" fill="#1E1E1E"/>
<path d="M142.345 31.0034H146.546V20.4491H142.345V31.0034ZM149.155 16.0513C150.393 16.0513 151.189 16.8868 151.189 18.0743V33.378C151.189 34.5654 150.393 35.4009 149.155 35.4009H137.701V4.6174H150.747V9.01492H142.345V16.0513H149.155Z" fill="#1E1E1E"/>
<path d="M158.264 31.0034H162.466V20.4491H158.264V31.0034ZM153.621 35.4009V4.6174H158.264V16.0513H165.075C166.313 16.0513 167.109 16.8868 167.109 18.0743V33.378C167.109 34.5654 166.313 35.4009 165.075 35.4009H153.621Z" fill="#1E1E1E"/>
<path d="M176.528 -7.62939e-05H180.066V3.29809H176.528V-7.62939e-05ZM170.558 -7.62939e-05H174.096V3.29809H170.558V-7.62939e-05ZM169.541 4.6174H181.039V9.01492H174.184V16.491H180.818V20.8885H174.184V31.0034H181.039V35.4009H169.541V4.6174Z" fill="#1E1E1E"/>
<path d="M188.114 31.0034H192.315V20.8884H188.114V31.0034ZM192.315 9.01492H188.114V16.491H192.315V9.01492ZM196.959 15.2595C196.959 17.0187 196.03 18.2061 194.659 18.6898C196.03 19.1737 196.959 20.3169 196.959 22.1199V33.378C196.959 34.5654 196.163 35.4009 194.924 35.4009H183.471V4.6174H194.924C196.163 4.6174 196.959 5.45302 196.959 6.64015V15.2595Z" fill="#1E1E1E"/>
<path d="M214.205 4.6174H218.848V35.4009H214.205V4.6174ZM204.255 31.0034H207.792V20.4491H204.255V31.0034ZM212.436 33.378C212.436 34.5654 211.64 35.4009 210.402 35.4009H199.611V4.6174H204.255V16.0513H210.402C211.64 16.0513 212.436 16.8868 212.436 18.0743V33.378Z" fill="#1E1E1E"/>
<path d="M85.658 39.6727V44.0701H76.8934V70.4562H72.25V39.6727H85.658Z" fill="#1E1E1E"/>
<path d="M97.6775 44.0701H93.0341V66.0585H97.6775V44.0701ZM90.425 70.4562C89.1869 70.4562 88.3906 69.6206 88.3906 68.4332V41.6953C88.3906 40.5082 89.1869 39.6727 90.425 39.6727H100.287C101.525 39.6727 102.321 40.5082 102.321 41.6953V68.4332C102.321 69.6206 101.525 70.4562 100.287 70.4562H90.425Z" fill="#1E1E1E"/>
<path d="M109.618 55.9438H114.041V44.0702H109.618V55.9438ZM109.618 60.3416V70.4562H104.975V39.6727H116.65C117.888 39.6727 118.684 40.5082 118.684 41.6953V58.3186C118.684 59.506 117.888 60.3416 116.65 60.3416H109.618Z" fill="#1E1E1E"/>
<path d="M135.711 39.6727H140.354V70.4562H135.711V39.6727ZM125.761 66.0585H129.299V55.5043H125.761V66.0585ZM133.942 68.4332C133.942 69.6206 133.146 70.4562 131.908 70.4562H121.117V39.6727H125.761V51.1065H131.908C133.146 51.1065 133.942 51.9421 133.942 53.1296V68.4332Z" fill="#1E1E1E"/>
</g>
</g>
<defs>
<clipPath id="clip0_336_1450">
<rect width="219" height="71" fill="white"/>
</clipPath>
</defs>
</svg>
