<svg width="153" height="55" viewBox="0 0 153 55" fill="none" xmlns="http://www.w3.org/2000/svg">
<g opacity="0.5" clip-path="url(#clip0_336_1504)">
<mask id="mask0_336_1504" style="mask-type:luminance" maskUnits="userSpaceOnUse" x="0" y="0" width="153" height="55">
<path d="M152.581 0.0166016H0V54.3204H152.581V0.0166016Z" fill="white"/>
</mask>
<g mask="url(#mask0_336_1504)">
<path fill-rule="evenodd" clip-rule="evenodd" d="M10.387 0.0166016L7.78861 7.12075H43.7961L46.3944 0.0166016H10.387ZM6.4886 10.6712L3.89025 17.7737H39.8977L42.4961 10.6712H6.4886ZM2.59836 21.3258L0 28.4283H36.0075L38.6042 21.3258H2.59836Z" fill="#1E1E1E"/>
<path fill-rule="evenodd" clip-rule="evenodd" d="M76.5504 31.1353V31.2852C78.1957 31.8881 79.7676 32.9423 80.5913 33.6192C83.1357 35.7276 84.2591 38.513 84.2591 42.1269C84.2591 48.0765 81.1153 52.3674 75.951 53.723C74.3791 54.1743 72.7338 54.3258 69.6636 54.3258H54.0234V10.8076H67.869C70.7134 10.8076 72.6583 10.9575 74.3791 11.4088C79.3945 12.7644 82.6872 16.2285 82.6872 21.7234C82.6872 24.6603 81.6392 27.1459 79.9185 28.8013C79.1703 29.5541 78.1223 30.4583 76.5504 31.1353ZM62.7048 35.7276V47.1722H68.6926C70.487 47.1722 72.1344 47.0223 73.3332 45.8923C74.53 44.7624 75.054 43.3326 75.054 41.4499C75.054 40.0201 74.6788 38.6646 73.9306 37.6861C72.6583 36.1048 71.0864 35.7276 68.393 35.7276H62.7048ZM62.6294 28.1984H67.4941C68.9906 28.1984 69.7389 28.1984 70.487 27.9728C72.5095 27.3699 73.7817 25.5646 73.7817 23.079C73.7817 20.1438 72.4341 18.8623 70.487 18.261C69.6636 18.0354 68.8417 17.9596 67.1944 17.9596H62.6294V28.1984ZM97.2809 54.3258V18.1095H84.7831V10.8076H119.51L117.041 18.1095H105.963V54.3258H97.2809ZM122.203 54.3258V10.8076H150.345L147.876 18.1095H130.811V27.7471H137.771C143.384 27.7471 146.304 29.1027 148.324 30.8339C149.896 32.1895 152.59 35.2005 152.59 41.1501C152.59 47.0223 149.821 50.259 147.501 51.916C144.807 53.7971 141.963 54.3258 136.199 54.3258H122.203ZM130.811 47.0223H137.323C139.792 47.0223 141.288 46.4194 142.336 45.0638C142.86 44.3868 143.608 43.1811 143.608 40.9228C143.608 38.6646 142.86 37.0833 141.364 35.9533C140.467 35.2763 139.268 34.9007 137.247 34.9007H130.811V47.0223Z" fill="#1E1E1E"/>
</g>
</g>
<defs>
<clipPath id="clip0_336_1504">
<rect width="153" height="55" fill="white"/>
</clipPath>
</defs>
</svg>
