<svg width="256" height="113" viewBox="0 0 256 113" fill="none" xmlns="http://www.w3.org/2000/svg">
<g opacity="0.5" clip-path="url(#clip0_2177_76)">
<mask id="mask0_2177_76" style="mask-type:luminance" maskUnits="userSpaceOnUse" x="20" y="29" width="153" height="55">
<path d="M172.581 29.0166H20V83.3204H172.581V29.0166Z" fill="white"/>
</mask>
<g mask="url(#mask0_2177_76)">
<path fill-rule="evenodd" clip-rule="evenodd" d="M30.387 29.0166L27.7886 36.1207H63.7961L66.3944 29.0166H30.387ZM26.4886 39.6712L23.8902 46.7737H59.8977L62.4961 39.6712H26.4886ZM22.5984 50.3258L20 57.4283H56.0075L58.6042 50.3258H22.5984Z" fill="#1E1E1E"/>
<path fill-rule="evenodd" clip-rule="evenodd" d="M96.5504 60.1353V60.2852C98.1957 60.8881 99.7676 61.9423 100.591 62.6192C103.136 64.7276 104.259 67.513 104.259 71.1269C104.259 77.0765 101.115 81.3674 95.951 82.723C94.3791 83.1743 92.7338 83.3258 89.6636 83.3258H74.0234V39.8076H87.869C90.7134 39.8076 92.6583 39.9575 94.3791 40.4088C99.3945 41.7644 102.687 45.2285 102.687 50.7234C102.687 53.6603 101.639 56.1459 99.9185 57.8013C99.1703 58.5541 98.1223 59.4583 96.5504 60.1353ZM82.7048 64.7276V76.1722H88.6926C90.487 76.1722 92.1344 76.0223 93.3332 74.8923C94.53 73.7624 95.054 72.3326 95.054 70.4499C95.054 69.0201 94.6788 67.6646 93.9306 66.6861C92.6583 65.1048 91.0864 64.7276 88.393 64.7276H82.7048ZM82.6294 57.1984H87.4941C88.9906 57.1984 89.7389 57.1984 90.487 56.9728C92.5095 56.3699 93.7817 54.5646 93.7817 52.079C93.7817 49.1438 92.4341 47.8623 90.487 47.261C89.6636 47.0354 88.8417 46.9596 87.1944 46.9596H82.6294V57.1984ZM117.281 83.3258V47.1095H104.783V39.8076H139.51L137.041 47.1095H125.963V83.3258H117.281ZM142.203 83.3258V39.8076H170.345L167.876 47.1095H150.811V56.7471H157.771C163.384 56.7471 166.304 58.1027 168.324 59.8339C169.896 61.1895 172.59 64.2005 172.59 70.1501C172.59 76.0223 169.821 79.259 167.501 80.916C164.807 82.7971 161.963 83.3258 156.199 83.3258H142.203ZM150.811 76.0223H157.323C159.792 76.0223 161.288 75.4194 162.336 74.0638C162.86 73.3868 163.608 72.1811 163.608 69.9228C163.608 67.6646 162.86 66.0833 161.364 64.9533C160.467 64.2763 159.268 63.9007 157.247 63.9007H150.811V76.0223Z" fill="#1E1E1E"/>
</g>
</g>
<defs>
<clipPath id="clip0_2177_76">
<rect width="153" height="55" fill="white" transform="translate(20 29)"/>
</clipPath>
</defs>
</svg>
